<?xml version="1.0" encoding="UTF-8"?>
<svg id="Calque_2" data-name="Calque 2" xmlns="http://www.w3.org/2000/svg" viewBox="0 0 10 10">
  <defs>
    <style>
      .cls-1 {
        fill: rgba(255, 255, 255, .3);
      }
    </style>
  </defs>
  <g id="Calque_1-2" data-name="Calque 1">
    <path class="cls-1" d="M8.5,7.5c.6,0,1.5-.4,1.5-1.5s-.9-1.5-1.5-1.5h-1v-1h1c1.1,0,1.5-.89,1.5-1.5,0-1.1-.9-1.5-1.5-1.5h-1v-.5h-.5v.5H3v-.5h-.5v.5H0v1h2.5v1h-1c-.61,0-1.5.4-1.5,1.5s.89,1.5,1.5,1.5h1v1h-1c-.61,0-1.5.4-1.5,1.5s.89,1.5,1.5,1.5h1v.5h.5v-.5h4v.5h.5v-.5h2.5v-1h-2.5v-1h1ZM8.5,5.5c.23,0,.5.09.5.5s-.27.5-.5.5h-1v-1h1ZM7,4.5H3v-1h4v1ZM8.5,1.5c.23,0,.5.1.5.5,0,.22-.1.5-.5.5h-1v-1h1ZM3,1.5h4v1H3v-1ZM1.5,4.5c-.22,0-.5-.09-.5-.5s.28-.5.5-.5h1v1h-1ZM3,5.5h4v1H3v-1ZM1.5,8.5c-.22,0-.5-.1-.5-.5s.28-.5.5-.5h1v1h-1ZM7,8.5H3v-1h4v1Z"/>
  </g>
</svg>