<?xml version="1.0" encoding="UTF-8"?>
<svg id="Calque_2" data-name="Calque 2" xmlns="http://www.w3.org/2000/svg" viewBox="0 0 893.45 353">
  <defs>
    <style>
      .cls-1 {
        fill: #fff;
      }

      .cls-2 {
        fill: none;
        stroke:#e32021;
        stroke-miterlimit: 10;
        stroke-width: 8px;
      }
       .text-path {
        fill: none;
        stroke:white;
        stroke-width: 1px;
        font-size: 25px;
      }
    </style>
  </defs>
  <g id="Calque_1-2" data-name="Calque 1">
    <g>
      <path class="cls-1" d="M130.34,156.3c-4.96,0-9.16-.87-12.6-2.6-3.44-1.73-6.07-4.21-7.88-7.44-1.81-3.23-2.83-7.11-3.04-11.64-.05-2.19-.08-4.53-.08-7.04s.03-4.91.08-7.2c.21-4.48,1.24-8.35,3.08-11.6,1.84-3.25,4.48-5.75,7.92-7.48,3.44-1.73,7.61-2.6,12.52-2.6,3.63,0,6.88.48,9.76,1.44s5.33,2.28,7.36,3.96c2.03,1.68,3.6,3.64,4.72,5.88,1.12,2.24,1.71,4.67,1.76,7.28.05.48-.09.88-.44,1.2-.35.32-.76.48-1.24.48h-7.6c-.59,0-1.07-.15-1.44-.44-.37-.29-.64-.79-.8-1.48-.85-3.52-2.32-5.92-4.4-7.2-2.08-1.28-4.67-1.92-7.76-1.92-3.57,0-6.43,1-8.56,3-2.13,2-3.28,5.29-3.44,9.88-.16,4.37-.16,8.85,0,13.44.16,4.59,1.31,7.88,3.44,9.88,2.13,2,4.99,3,8.56,3,3.09,0,5.69-.65,7.8-1.96,2.11-1.31,3.56-3.69,4.36-7.16.16-.75.43-1.25.8-1.52.37-.27.85-.4,1.44-.4h7.6c.48,0,.89.16,1.24.48.35.32.49.72.44,1.2-.05,2.61-.64,5.04-1.76,7.28-1.12,2.24-2.69,4.2-4.72,5.88-2.03,1.68-4.48,3-7.36,3.96-2.88.96-6.13,1.44-9.76,1.44Z"/>
      <path class="cls-1" d="M165.38,155.5c-.53,0-.99-.17-1.36-.52-.37-.35-.56-.81-.56-1.4v-52.08c0-.59.19-1.07.56-1.44s.83-.56,1.36-.56h7.28c.59,0,1.05.19,1.4.56.35.37.52.85.52,1.44v20.64h23.6v-20.64c0-.59.19-1.07.56-1.44s.83-.56,1.36-.56h7.2c.59,0,1.07.19,1.44.56.37.37.56.85.56,1.44v52.08c0,.53-.19.99-.56,1.36-.37.37-.85.56-1.44.56h-7.2c-.53,0-.99-.19-1.36-.56-.37-.37-.56-.83-.56-1.36v-21.44h-23.6v21.44c0,.53-.17.99-.52,1.36-.35.37-.81.56-1.4.56h-7.28Z"/>
      <path class="cls-1" d="M218.34,155.5c-.43,0-.81-.16-1.16-.48-.35-.32-.52-.72-.52-1.2,0-.21.05-.45.16-.72l19.28-51.6c.16-.53.47-1,.92-1.4.45-.4,1.08-.6,1.88-.6h8.72c.8,0,1.41.2,1.84.6.43.4.75.87.96,1.4l19.28,51.6c.05.27.08.51.08.72,0,.48-.16.88-.48,1.2-.32.32-.69.48-1.12.48h-6.96c-.75,0-1.29-.17-1.64-.52-.35-.35-.57-.68-.68-1l-3.76-9.76h-23.76l-3.76,9.76c-.11.32-.33.65-.68,1-.35.35-.89.52-1.64.52h-6.96ZM234.18,135.02h18.16l-9.12-24.72-9.04,24.72Z"/>
      <path class="cls-1" d="M298.34,156.3c-4.64,0-8.67-.79-12.08-2.36-3.41-1.57-6.05-4-7.92-7.28-1.87-3.28-2.8-7.48-2.8-12.6v-32.56c0-.59.19-1.07.56-1.44.37-.37.83-.56,1.36-.56h7.28c.59,0,1.05.19,1.4.56.35.37.52.85.52,1.44v32.56c0,4.37,1.04,7.61,3.12,9.72,2.08,2.11,4.93,3.16,8.56,3.16s6.47-1.05,8.52-3.16c2.05-2.11,3.08-5.35,3.08-9.72v-32.56c0-.59.19-1.07.56-1.44.37-.37.85-.56,1.44-.56h7.2c.59,0,1.05.19,1.4.56.35.37.52.85.52,1.44v32.56c0,5.12-.92,9.32-2.76,12.6-1.84,3.28-4.45,5.71-7.84,7.28-3.39,1.57-7.43,2.36-12.12,2.36Z"/>
      <path class="cls-1" d="M334.98,155.5c-.53,0-.99-.19-1.36-.56-.37-.37-.56-.83-.56-1.36v-52.08c0-.59.19-1.07.56-1.44.37-.37.83-.56,1.36-.56h34.72c.59,0,1.07.19,1.44.56.37.37.56.85.56,1.44v5.6c0,.59-.19,1.05-.56,1.4-.37.35-.85.52-1.44.52h-25.68v15.2h24.08c.59,0,1.07.19,1.44.56.37.37.56.85.56,1.44v5.6c0,.53-.19.99-.56,1.36-.37.37-.85.56-1.44.56h-24.08v19.84c0,.53-.19.99-.56,1.36-.37.37-.85.56-1.44.56h-7.04Z"/>
      <path class="cls-1" d="M383.06,155.5c-.53,0-.99-.19-1.36-.56-.37-.37-.56-.83-.56-1.36v-52.08c0-.59.19-1.07.56-1.44.37-.37.83-.56,1.36-.56h34.72c.59,0,1.07.19,1.44.56.37.37.56.85.56,1.44v5.6c0,.59-.19,1.05-.56,1.4-.37.35-.85.52-1.44.52h-25.68v15.2h24.08c.59,0,1.07.19,1.44.56.37.37.56.85.56,1.44v5.6c0,.53-.19.99-.56,1.36-.37.37-.85.56-1.44.56h-24.08v19.84c0,.53-.19.99-.56,1.36-.37.37-.85.56-1.44.56h-7.04Z"/>
      <path class="cls-1" d="M422.5,155.5c-.43,0-.81-.16-1.16-.48s-.52-.72-.52-1.2c0-.21.05-.45.16-.72l19.28-51.6c.16-.53.47-1,.92-1.4.45-.4,1.08-.6,1.88-.6h8.72c.8,0,1.41.2,1.84.6.43.4.75.87.96,1.4l19.28,51.6c.05.27.08.51.08.72,0,.48-.16.88-.48,1.2-.32.32-.69.48-1.12.48h-6.96c-.75,0-1.29-.17-1.64-.52-.35-.35-.57-.68-.68-1l-3.76-9.76h-23.76l-3.76,9.76c-.11.32-.33.65-.68,1-.35.35-.89.52-1.64.52h-6.96ZM438.34,135.02h18.16l-9.12-24.72-9.04,24.72Z"/>
      <path class="cls-1" d="M502.02,156.3c-4.91,0-9.08-.85-12.52-2.56-3.44-1.71-6.11-4.17-8-7.4-1.89-3.23-2.92-7.08-3.08-11.56-.05-2.29-.08-4.76-.08-7.4s.03-5.13.08-7.48c.16-4.43,1.19-8.21,3.08-11.36,1.89-3.15,4.59-5.57,8.08-7.28,3.49-1.71,7.64-2.56,12.44-2.56,3.89,0,7.31.52,10.24,1.56,2.93,1.04,5.37,2.37,7.32,4,1.95,1.63,3.41,3.37,4.4,5.24.99,1.87,1.51,3.6,1.56,5.2.05.48-.08.88-.4,1.2-.32.32-.75.48-1.28.48h-8.24c-.53,0-.93-.11-1.2-.32-.27-.21-.51-.53-.72-.96-.43-1.12-1.09-2.23-2-3.32-.91-1.09-2.13-2.01-3.68-2.76-1.55-.75-3.55-1.12-6-1.12-3.63,0-6.52.96-8.68,2.88-2.16,1.92-3.32,5.09-3.48,9.52-.16,4.64-.16,9.33,0,14.08.16,4.53,1.35,7.79,3.56,9.76,2.21,1.97,5.13,2.96,8.76,2.96,2.4,0,4.55-.43,6.44-1.28,1.89-.85,3.39-2.19,4.48-4,1.09-1.81,1.64-4.13,1.64-6.96v-2.48h-9.76c-.53,0-.99-.19-1.36-.56-.37-.37-.56-.85-.56-1.44v-4.24c0-.59.19-1.07.56-1.44.37-.37.83-.56,1.36-.56h19.12c.59,0,1.05.19,1.4.56.35.37.52.85.52,1.44v8.4c0,4.48-.97,8.35-2.92,11.6-1.95,3.25-4.72,5.76-8.32,7.52-3.6,1.76-7.85,2.64-12.76,2.64Z"/>
      <path class="cls-1" d="M538.18,155.5c-.53,0-.99-.19-1.36-.56-.37-.37-.56-.83-.56-1.36v-52.08c0-.59.19-1.07.56-1.44.37-.37.83-.56,1.36-.56h35.2c.59,0,1.07.19,1.44.56.37.37.56.85.56,1.44v5.28c0,.53-.19.99-.56,1.36-.37.37-.85.56-1.44.56h-26.32v14.16h24.56c.59,0,1.07.17,1.44.52.37.35.56.81.56,1.4v4.96c0,.59-.19,1.05-.56,1.4-.37.35-.85.52-1.44.52h-24.56v14.64h26.96c.59,0,1.07.19,1.44.56.37.37.56.85.56,1.44v5.28c0,.53-.19.99-.56,1.36-.37.37-.85.56-1.44.56h-35.84Z"/>
      <path class="cls-2" d="M349,58V4H4v345h345v-55"/>
    </g>
  </g>
</svg>