<?xml version="1.0" encoding="UTF-8"?>
<svg id="Calque_2" data-name="Calque 2" xmlns="http://www.w3.org/2000/svg" viewBox="0 0 355.48 137.02">
  <defs>
    <style>
      .cls-1 {
        fill: #0756a4;
      }

      .cls-2 {
        fill: #fff;
      }

      .cls-3 {
        fill: #f6bf34;
      }

      .cls-4 {
        fill: #3fa535;
      }

      .cls-5 {
        fill: #e32021;
      }
    </style>
  </defs>
  <g id="OBJECTS">
    <rect class="cls-5" x="189.03" y="90.37" width="151.94" height="23.54"/>
    <rect class="cls-1" x="189.03" y="64.35" width="151.94" height="23.54"/>
    <rect class="cls-4" x="3.33" y="116.74" width="183.32" height="12.48"/>
    <g>
      <path class="cls-2" d="M206.88,106.03c-.88,2.64-2.81,4.83-7.2,4.83-5.11,0-7.89-3.58-7.89-7.99s3.08-8.06,8-8.06c4.44,0,6.53,2.39,7.14,4.92h-2.23c-.67-1.61-1.9-3.1-4.93-3.1-3.53,0-5.67,2.61-5.67,6.16s2.12,6.26,5.69,6.26c2.9,0,4.06-1.24,4.9-3.02h2.2Z"/>
      <path class="cls-2" d="M210.05,95.14h2.18v6.22h9.27v-6.22h2.18v15.39h-2.18v-7.33h-9.27v7.33h-2.18v-15.39Z"/>
      <path class="cls-2" d="M230.37,105.87l-1.99,4.66h-2.27l6.62-15.39h2.64l6.89,15.39h-2.37l-2.07-4.66h-7.45ZM237.11,104.02c-1.88-4.25-2.77-6.26-3.12-7.31h-.02c-.32,1.01-1.37,3.64-2.92,7.31h6.06Z"/>
      <path class="cls-2" d="M246.37,95.14v8.75c0,4.03,2.37,5.15,4.71,5.15,2.82,0,4.52-1.33,4.52-5.15v-8.75h2.18v8.72c0,5.01-2.61,7-6.77,7s-6.8-2.03-6.8-6.83v-8.89h2.18Z"/>
      <path class="cls-2" d="M262.13,95.14h11.71v1.83h-9.53v5.01h8.89v1.85h-8.89v6.7h-2.18v-15.39Z"/>
      <path class="cls-2" d="M276.82,95.14h11.71v1.83h-9.53v5.01h8.89v1.85h-8.89v6.7h-2.18v-15.39Z"/>
      <path class="cls-2" d="M292.58,105.87l-1.99,4.66h-2.27l6.62-15.39h2.64l6.89,15.39h-2.37l-2.07-4.66h-7.45ZM299.32,104.02c-1.88-4.25-2.77-6.26-3.12-7.31h-.02c-.32,1.01-1.37,3.64-2.92,7.31h6.06Z"/>
      <path class="cls-2" d="M321.07,110.54h-1.67c-.07-.38-.17-1.59-.17-2.28-1.03,1.66-2.59,2.6-5.61,2.6-4.86,0-7.83-3.2-7.83-7.98,0-4.53,3.08-8.07,8.21-8.07,4.61,0,6.58,2.35,7.15,4.62h-2.24c-.59-1.44-1.93-2.83-4.92-2.83-3.85,0-5.89,2.71-5.89,6.16,0,3.63,2.06,6.3,5.84,6.3,3.21,0,5.03-1.63,5.03-4.66v-.46h-4.99v-1.83h7.09v8.42Z"/>
      <path class="cls-2" d="M336.41,103.37h-9.23v5.33h10.19l-.29,1.84h-12.07v-15.39h11.89v1.84h-9.72v4.55h9.23v1.84Z"/>
    </g>
    <g>
      <path class="cls-2" d="M193.78,80.04c.56,1.8,1.88,3.07,4.91,3.07s4.19-1.17,4.19-2.61c0-1.51-.85-2.44-4.82-3.11-4.63-.78-5.74-2.24-5.74-4.33,0-2.71,2.57-4.25,5.92-4.25,5.01,0,6.19,2.62,6.36,4.18h-2.2c-.31-1.05-.97-2.43-4.21-2.43-2.21,0-3.64.76-3.64,2.3,0,1.26.63,2.05,4.12,2.64,5.56.94,6.45,2.67,6.45,4.8,0,2.45-1.95,4.55-6.59,4.55-4.3,0-6.48-1.96-6.97-4.79h2.22Z"/>
      <path class="cls-2" d="M213.98,79.85l-1.99,4.66h-2.27l6.62-15.39h2.64l6.89,15.39h-2.37l-2.07-4.66h-7.45ZM220.72,78c-1.88-4.25-2.77-6.26-3.12-7.31h-.02c-.32,1.01-1.37,3.64-2.92,7.31h6.06Z"/>
      <path class="cls-2" d="M231.12,84.52v-15.39h2.6c3.46,4.82,8.41,11.14,9.28,12.73h.04c-.14-2-.12-4.43-.12-6.93v-5.79h2.04v15.39h-2.46c-2.29-3.07-8.32-11.37-9.42-13.17h-.04c.12,1.98.12,4.16.12,6.89v6.28h-2.03Z"/>
      <path class="cls-2" d="M254.4,69.12v15.39h-2.18v-15.39h2.18Z"/>
      <path class="cls-2" d="M265.6,70.97h-5.87v-1.85h13.92v1.85h-5.86v13.55h-2.19v-13.55Z"/>
      <path class="cls-2" d="M279.18,79.85l-1.99,4.66h-2.27l6.62-15.39h2.64l6.89,15.39h-2.37l-2.07-4.66h-7.45ZM285.92,78c-1.88-4.25-2.77-6.26-3.12-7.31h-.02c-.32,1.01-1.37,3.64-2.92,7.31h6.06Z"/>
      <path class="cls-2" d="M298.5,69.12v15.39h-2.18v-15.39h2.18Z"/>
      <path class="cls-2" d="M307.92,77.88v6.63h-2.16v-15.39h7.35c3.16,0,5.27,1.44,5.27,4.18,0,1.86-.93,3.18-2.81,3.67,1.01.28,2.41,1.05,2.41,3.74v.68c0,1.18,0,2.48.18,3.12h-2.23c-.23-.67-.2-1.84-.2-3.13v-.51c0-2.27-.88-2.99-3.58-2.99h-4.23ZM307.92,76.1h4.64c2.4,0,3.58-.84,3.58-2.67,0-1.68-1.19-2.52-3.5-2.52h-4.72v5.2Z"/>
      <path class="cls-2" d="M336.33,77.35h-9.23v5.33h10.19l-.29,1.84h-12.07v-15.39h11.89v1.84h-9.72v4.55h9.23v1.84Z"/>
    </g>
    <path class="cls-5" d="M62.2,31.97l32.86,77.63h-12.92l-6.91-16.87-1.14-2.79H29.42l-1.11,2.88-6.45,16.77h-11.87L41.26,31.97h20.94M31.4,82.08h40.47l-2.51-6.19c-8.34-20.54-11.99-30.02-13.94-36.24l-.99-3.15h-6.78l-.96,3.21c-1.71,5.7-6,18.22-12.94,36.26l-2.35,6.12M65.18,27.47h-26.96L3.33,114.09h21.62l7.56-19.66h38.55l8.05,19.66h22.73L65.18,27.47h0ZM37.96,77.58c6.51-16.94,11.11-30.11,13.05-36.59h.12c2.08,6.62,6,16.74,14.06,36.59h-27.24Z"/>
    <path class="cls-1" d="M144.54,29.62c11.74,0,21.21,2.78,28.14,8.27,4.71,3.73,7.27,7.96,8.66,11.45h-13.36c-2.71-4.83-9.1-11.84-23.45-11.84-18.16,0-29.45,12.55-29.45,32.75s11.1,33.71,29.7,33.71,25.35-11.33,25.35-21.94v-5.37h-21.1v-8.21h33.44v41.66h-7.95c-.27-1.65-.53-3.57-.7-5.26l-.94-9.43-6.1,7.26c-4.69,5.57-10.93,9.28-26.16,9.28-12.26,0-22.44-3.99-29.44-11.54-6.71-7.23-10.26-17.3-10.26-29.11,0-25.31,17.12-41.66,43.62-41.66M144.54,25.62c-30.97,0-47.62,20.36-47.62,45.66s15.64,44.66,43.7,44.66c16.29,0,23.73-4.19,29.22-10.71.31,3.11.91,6.96,1.39,8.86h15.24v-49.66h-41.44v16.21h21.1v1.37c0,10.33-6.68,17.94-21.35,17.94-17.66,0-25.7-12.71-25.7-29.71,0-16.11,7.71-28.75,25.45-28.75,14.24,0,19.23,7.47,20.93,11.84h21.19c-2.3-12.6-14.3-27.72-42.11-27.72h0Z"/>
    <path class="cls-3" d="M51.24,16.82c.93,0,1.69-.76,1.69-1.69V1.69c0-.93-.76-1.69-1.69-1.69s-1.69.76-1.69,1.69v13.45c0,.93.76,1.69,1.69,1.69Z"/>
    <path class="cls-3" d="M80.47,45.05c0,.93.76,1.69,1.69,1.69h13.45c.93,0,1.69-.76,1.69-1.69s-.76-1.69-1.69-1.69h-13.45c-.93,0-1.69.76-1.69,1.69Z"/>
    <path class="cls-3" d="M5.85,45.05c0,.93.76,1.69,1.69,1.69h13.45c.93,0,1.69-.76,1.69-1.69s-.76-1.69-1.69-1.69H7.54c-.93,0-1.69.76-1.69,1.69Z"/>
    <path class="cls-3" d="M28.94,25.07c.33.33.76.49,1.19.49s.86-.16,1.19-.49c.66-.66.66-1.73,0-2.39l-9.51-9.51c-.66-.66-1.73-.66-2.39,0-.66.66-.66,1.73,0,2.39l9.51,9.51Z"/>
    <path class="cls-3" d="M72.34,25.56c.43,0,.86-.16,1.19-.49l9.51-9.51c.66-.66.66-1.73,0-2.39-.66-.66-1.73-.66-2.39,0l-9.51,9.51c-.66.66-.66,1.73,0,2.39.33.33.76.49,1.19.49Z"/>
    <path class="cls-3" d="M38.26,18.05c.27.65.9,1.04,1.56,1.04.22,0,.43-.04.65-.13.86-.36,1.27-1.34.91-2.2l-2.24-5.41c-.36-.86-1.34-1.27-2.2-.91-.86.36-1.27,1.34-.91,2.2l2.24,5.41Z"/>
    <path class="cls-3" d="M16.55,32.44l6.47,2.68c.21.09.43.13.65.13.66,0,1.29-.39,1.56-1.04.36-.86-.05-1.85-.91-2.2l-6.47-2.68c-.86-.36-1.85.05-2.2.91-.36.86.05,1.85.91,2.2Z"/>
    <path class="cls-3" d="M62.02,18.97c.21.09.43.13.65.13.66,0,1.29-.39,1.56-1.04l2.24-5.41c.36-.86-.05-1.85-.91-2.2-.86-.36-1.85.05-2.2.91l-2.24,5.41c-.36.86.05,1.85.91,2.2Z"/>
    <path class="cls-3" d="M77.26,34.21c.27.65.9,1.04,1.56,1.04.22,0,.43-.04.65-.13l6.47-2.68c.86-.36,1.27-1.34.91-2.2-.36-.86-1.34-1.27-2.2-.91l-6.47,2.68c-.86.36-1.27,1.34-.91,2.2Z"/>
    <g>
      <path class="cls-2" d="M7.2,120.55h-1.3v-.95h3.7v.95h-1.3v5.14h-1.09v-5.14Z"/>
      <path class="cls-2" d="M11.31,124.15l-.3,1.53h-1.09l1.41-6.09h1.42l1.43,6.09h-1.14l-.3-1.53h-1.41ZM12.53,123.21c-.23-1.17-.41-2.02-.5-2.6h-.03c-.07.56-.27,1.48-.49,2.6h1.02Z"/>
      <path class="cls-2" d="M15.38,119.59h1.86c1.06,0,1.64.59,1.64,1.54,0,.77-.37,1.14-.7,1.27.43.18.88.57.88,1.49,0,1.16-.75,1.79-1.84,1.79h-1.83v-6.09ZM16.98,122.02c.68,0,.85-.26.85-.79s-.28-.78-.82-.78h-.56v1.56h.53ZM16.45,124.83h.65c.54,0,.86-.28.86-.96,0-.63-.26-1-.98-1h-.53v1.96Z"/>
      <path class="cls-2" d="M21.59,123.09v2.6h-1.08v-6.09h1.87c1.11,0,1.73.58,1.73,1.66,0,.88-.47,1.26-.79,1.39.47.22.69.62.69,1.52v.24c0,.69.03.95.08,1.28h-1.05c-.09-.28-.1-.76-.1-1.29v-.22c0-.81-.19-1.09-.88-1.09h-.47ZM21.59,122.21h.51c.66,0,.92-.28.92-.9,0-.52-.25-.83-.81-.83h-.62v1.73Z"/>
      <path class="cls-2" d="M26.72,119.59v6.09h-1.09v-6.09h1.09Z"/>
      <path class="cls-2" d="M28.09,124.93l2.37-4.38h-2.19v-.95h3.38v.87l-2.29,4.27h2.41l-.14.95h-3.54v-.76Z"/>
      <path class="cls-2" d="M34.16,119.59v6.09h-1.09v-6.09h1.09Z"/>
      <path class="cls-2" d="M41.93,125.69h-.83c-.03-.19-.04-.32-.05-.52-.27.48-.7.62-1.21.62-1.27,0-1.73-1.13-1.73-3.11,0-2.22.75-3.18,2.06-3.18,1.65,0,1.74,1.41,1.76,1.78h-1.08c-.02-.25-.07-.85-.71-.85-.7,0-.9.94-.9,2.26,0,1.42.17,2.2.86,2.2.58,0,.75-.44.75-1.34v-.34h-.82v-.93h1.9v3.42Z"/>
      <path class="cls-2" d="M43.55,122.6c0-.77,0-1.25,0-1.58h1.03c0,.08.03.27.03.77.18-.53.59-.84,1.22-.85v1.21c-.76-.02-1.19.21-1.19,1.09v2.45h-1.08v-3.08Z"/>
      <path class="cls-2" d="M50.37,123.32c0,1.69-.62,2.46-1.77,2.46s-1.74-.73-1.74-2.43.69-2.4,1.79-2.4,1.71.81,1.71,2.37ZM47.95,123.33c0,1,.17,1.54.68,1.54.48,0,.65-.54.65-1.53s-.17-1.5-.66-1.5-.67.48-.67,1.48Z"/>
      <path class="cls-2" d="M55.05,124.32c0,.68,0,1.13,0,1.37h-1.03c-.03-.14-.03-.35-.04-.51-.21.43-.54.59-1.04.59-.66,0-1.17-.33-1.17-1.4v-3.34h1.08v3.1c0,.46.1.72.49.72s.62-.22.62-.96v-2.86h1.08v3.29Z"/>
      <path class="cls-2" d="M57.65,125.33v2.04h-1.08v-5c0-.63,0-1.05,0-1.35h1.03c.02.1.03.34.03.51.15-.3.42-.59,1.05-.59.86,0,1.36.74,1.36,2.33,0,1.82-.6,2.5-1.5,2.5-.48,0-.75-.19-.89-.45ZM58.96,123.33c0-1.11-.23-1.47-.69-1.47-.54,0-.65.51-.65,1.42,0,1.07.06,1.57.64,1.57.47,0,.7-.5.7-1.53Z"/>
      <path class="cls-2" d="M64.82,118.66v9.37h-.88v-9.37h.88Z"/>
      <path class="cls-2" d="M71.21,123.24h-1.7v1.95h1.89l-.08.49h-2.36v-5.09h2.34v.5h-1.78v1.65h1.7v.5Z"/>
      <path class="cls-2" d="M72.52,123.06c0-.78,0-1,0-1.18h.53c.01.09.02.24.02.5.13-.3.39-.56.9-.56.55,0,.98.31.98,1.16v2.71h-.55v-2.6c0-.46-.15-.78-.58-.78-.51,0-.73.34-.73,1.12v2.26h-.55v-2.62Z"/>
      <path class="cls-2" d="M75.96,121.89h.54v-1.01h.54v1.01h.66v.47h-.66v2.49c0,.26.06.42.34.42.09,0,.2,0,.27-.02v.42c-.13.05-.32.06-.45.06-.45,0-.71-.18-.71-.78v-2.6h-.54v-.47Z"/>
      <path class="cls-2" d="M78.81,123.18c0-.61,0-1.02,0-1.29h.53c0,.1.02.28.02.68.16-.46.53-.73,1-.74v.6c-.65.02-.99.43-.99,1.13v2.12h-.55v-2.5Z"/>
      <path class="cls-2" d="M81.78,123.89c0,.74.13,1.39.73,1.39s.67-.56.69-.68h.54c0,.1-.12,1.15-1.23,1.15s-1.27-1.03-1.27-1.97c0-1.2.41-1.96,1.3-1.96,1,0,1.24.82,1.24,1.77,0,.07,0,.2-.01.29h-1.98ZM83.22,123.46c0-.65-.14-1.16-.69-1.16-.69,0-.73.9-.74,1.16h1.43Z"/>
      <path class="cls-2" d="M85.6,125.3v1.78h-.55v-4.09c0-.52,0-.87,0-1.11h.53c.01.07.02.32.02.51.13-.33.4-.57.91-.57.72,0,1.11.64,1.11,1.91,0,1.37-.48,2.02-1.22,2.02-.46,0-.68-.22-.79-.46ZM87.05,123.76c0-.96-.22-1.45-.72-1.45-.59,0-.75.56-.75,1.46s.09,1.5.72,1.5c.5,0,.75-.58.75-1.51Z"/>
      <path class="cls-2" d="M88.92,123.18c0-.61,0-1.02,0-1.29h.53c0,.1.02.28.02.68.16-.46.53-.73,1-.74v.6c-.65.02-.99.43-.99,1.13v2.12h-.55v-2.5Z"/>
      <path class="cls-2" d="M91.55,121.89h.55v3.8h-.55v-3.8ZM91.55,120.35h.55v.79h-.55v-.79Z"/>
      <path class="cls-2" d="M93.85,124.59c.02.41.24.71.67.71s.61-.25.61-.6c0-.39-.2-.57-.7-.77-.78-.3-1.01-.58-1.01-1.11s.31-1,1.09-1c.85,0,1.09.58,1.1,1.08h-.54c0-.18-.05-.63-.58-.63-.36,0-.52.22-.52.52s.13.45.66.66c.73.28,1.06.55,1.06,1.2,0,.69-.43,1.1-1.19,1.1s-1.17-.47-1.19-1.16h.54Z"/>
      <path class="cls-2" d="M97.32,123.89c0,.74.13,1.39.73,1.39s.67-.56.69-.68h.54c-.01.1-.12,1.15-1.23,1.15s-1.27-1.03-1.27-1.97c0-1.2.41-1.96,1.3-1.96,1,0,1.24.82,1.24,1.77,0,.07,0,.2-.01.29h-1.98ZM98.76,123.46c0-.65-.14-1.16-.69-1.16-.69,0-.73.9-.74,1.16h1.43Z"/>
      <path class="cls-2" d="M104.99,125.44c0,1-.24,1.7-1.33,1.7-.98,0-1.19-.64-1.21-1.05h.56c.01.21.14.58.68.58.64,0,.77-.47.77-1.23v-.35c-.14.39-.46.58-.88.58-.77,0-1.15-.65-1.15-1.84,0-1.37.51-2.01,1.23-2.01.51,0,.73.25.8.5,0-.17.02-.36.03-.43h.53c0,.2-.01.58-.01,1.1v2.46ZM102.98,123.82c0,.92.25,1.37.73,1.37.59,0,.75-.58.75-1.47s-.12-1.42-.7-1.42c-.5,0-.77.52-.77,1.51Z"/>
      <path class="cls-2" d="M106.85,123.89c0,.74.13,1.39.73,1.39s.67-.56.69-.68h.54c0,.1-.12,1.15-1.23,1.15s-1.27-1.03-1.27-1.97c0-1.2.41-1.96,1.3-1.96,1,0,1.24.82,1.24,1.77,0,.07,0,.2-.01.29h-1.98ZM108.29,123.46c0-.65-.14-1.16-.69-1.16-.69,0-.73.9-.74,1.16h1.43ZM108.65,120.27l-.94,1.04h-.51l.8-1.04h.65Z"/>
      <path class="cls-2" d="M110.12,123.06c0-.78,0-1,0-1.18h.53c.01.09.02.24.02.5.13-.3.39-.56.9-.56.55,0,.98.31.98,1.16v2.71h-.55v-2.6c0-.46-.15-.78-.58-.78-.51,0-.73.34-.73,1.12v2.26h-.55v-2.62Z"/>
      <path class="cls-2" d="M114.4,123.89c0,.74.13,1.39.73,1.39s.67-.56.69-.68h.54c-.01.1-.12,1.15-1.23,1.15s-1.27-1.03-1.27-1.97c0-1.2.41-1.96,1.3-1.96,1,0,1.24.82,1.24,1.77,0,.07,0,.2-.01.29h-1.98ZM115.84,123.46c0-.65-.14-1.16-.69-1.16-.69,0-.73.9-.74,1.16h1.43ZM116.19,120.27l-.94,1.04h-.51l.8-1.04h.65Z"/>
      <path class="cls-2" d="M117.67,123.18c0-.61,0-1.02,0-1.29h.53c0,.1.02.28.02.68.16-.46.53-.73,1-.74v.6c-.65.02-.99.43-.99,1.13v2.12h-.55v-2.5Z"/>
      <path class="cls-2" d="M122.43,125.01c0,.24.02.55.03.67h-.5c-.02-.08-.04-.29-.04-.43-.14.31-.43.5-.9.5-.73,0-.99-.57-.99-1.1,0-.7.47-1.22,1.47-1.22.18,0,.28,0,.4.01v-.51c0-.3-.06-.67-.57-.67-.56,0-.59.4-.62.65h-.53c.01-.54.27-1.1,1.16-1.1.74,0,1.09.36,1.09,1.06v2.13ZM121.91,123.89c-.09-.01-.2-.02-.38-.02-.68,0-.95.32-.95.75,0,.35.18.67.59.67.56,0,.74-.39.74-1.19v-.21Z"/>
      <path class="cls-2" d="M123.93,125.69v-5.33h.55v5.33h-.55Z"/>
      <path class="cls-2" d="M126.33,123.89c0,.74.13,1.39.73,1.39s.67-.56.69-.68h.54c0,.1-.12,1.15-1.23,1.15s-1.27-1.03-1.27-1.97c0-1.2.41-1.96,1.3-1.96,1,0,1.24.82,1.24,1.77,0,.07,0,.2-.01.29h-1.98ZM127.78,123.46c0-.65-.14-1.16-.69-1.16-.69,0-.73.9-.74,1.16h1.43Z"/>
      <path class="cls-2" d="M132.98,118.66v9.37h-.88v-9.37h.88Z"/>
      <path class="cls-2" d="M137.05,120.62h1.52c.84,0,1.46.5,1.46,1.51s-.57,1.5-1.54,1.5h-.55v2.06h-.91v-5.07ZM137.96,122.9h.44c.5,0,.73-.25.73-.78,0-.51-.26-.76-.68-.76h-.49v1.54Z"/>
      <path class="cls-2" d="M141.84,123.98c0,.49.06,1.04.56,1.04.45,0,.5-.38.52-.51h.86c-.01.12-.1,1.25-1.39,1.25s-1.43-1.06-1.43-2.04c0-1.23.47-1.98,1.45-1.98,1.12,0,1.4.84,1.4,1.85,0,.14,0,.32-.01.38h-1.95ZM142.91,123.33c0-.38-.04-.86-.52-.86-.51,0-.54.58-.55.86h1.06Z"/>
      <path class="cls-2" d="M144.99,123.01c0-.8,0-1,0-1.21h.86c.01.1.03.26.03.4.12-.21.35-.48.86-.48.63,0,.99.4.99,1.19v2.77h-.9v-2.56c0-.38-.08-.62-.44-.62-.34,0-.5.19-.5.78v2.4h-.9v-2.67Z"/>
      <path class="cls-2" d="M149.81,123.98c0,.49.06,1.04.56,1.04.45,0,.5-.38.52-.51h.86c-.01.12-.1,1.25-1.39,1.25s-1.43-1.06-1.43-2.04c0-1.23.47-1.98,1.45-1.98,1.12,0,1.4.84,1.4,1.85,0,.14,0,.32-.01.38h-1.95ZM150.89,123.33c0-.38-.04-.86-.52-.86-.51,0-.54.58-.55.86h1.06Z"/>
      <path class="cls-2" d="M153.57,121.81c.28,1.25.56,2.31.6,2.77h0c.09-.55.35-1.68.61-2.77h.9l-1.12,4.05c-.33,1.21-.76,1.28-1.3,1.28-.1,0-.24,0-.35-.03v-.76c.05,0,.19.02.28.02.34,0,.46-.17.56-.63l-1.17-3.93h.98Z"/>
      <path class="cls-2" d="M158.07,123.34v.77h-1.65v-.77h1.65Z"/>
      <path class="cls-2" d="M159.24,125.69v-5.32h.9v5.32h-.9Z"/>
      <path class="cls-2" d="M162.23,123.98c0,.49.06,1.04.56,1.04.45,0,.5-.38.52-.51h.86c-.01.12-.1,1.25-1.39,1.25s-1.43-1.06-1.43-2.04c0-1.23.47-1.98,1.45-1.98,1.12,0,1.4.84,1.4,1.85,0,.14,0,.32-.01.38h-1.95ZM163.31,123.33c0-.38-.04-.86-.52-.86-.51,0-.54.58-.55.86h1.06Z"/>
      <path class="cls-2" d="M166.95,123.34v.77h-1.65v-.77h1.65Z"/>
      <path class="cls-2" d="M169.4,124.35c0,.84-.2,1.4-1.21,1.4-.2,0-.38-.02-.49-.04v-.75c.08,0,.2.02.32.02.4,0,.47-.19.47-.58v-3.78h.91v3.74Z"/>
      <path class="cls-2" d="M173.51,123.71c0,1.41-.52,2.05-1.47,2.05s-1.44-.61-1.44-2.03.58-1.99,1.49-1.99,1.42.67,1.42,1.97ZM171.5,123.73c0,.83.14,1.28.57,1.28.4,0,.54-.45.54-1.27s-.14-1.25-.55-1.25-.56.4-.56,1.23Z"/>
      <path class="cls-2" d="M174.71,123.12c0-.64,0-1.04,0-1.31h.85c0,.07.02.23.02.64.15-.44.49-.7,1.02-.7v1c-.63-.01-.99.17-.99.91v2.04h-.9v-2.56Z"/>
      <path class="cls-2" d="M180.12,124.84c0,.19.02.67.03.84h-.81c-.02-.08-.04-.25-.04-.36-.15.25-.4.43-.87.43-.75,0-1.03-.59-1.03-1.15,0-.79.54-1.28,1.53-1.28.13,0,.23,0,.32,0v-.42c0-.23-.03-.49-.42-.49s-.42.24-.44.5h-.85c.02-.57.28-1.18,1.32-1.18.83,0,1.26.38,1.26,1.12v1.98ZM179.26,123.98c-.09-.02-.17-.02-.29-.02-.51,0-.7.24-.7.55,0,.24.11.5.45.5.46,0,.54-.34.54-.92v-.12Z"/>
      <path class="cls-2" d="M181.08,121.81h.51v-.97h.89v.97h.6v.73h-.6v2.12c0,.23.04.35.32.35.09,0,.15,0,.22-.02v.66c-.16.07-.41.08-.55.08-.62,0-.89-.23-.89-.93v-2.27h-.51v-.73Z"/>
    </g>
    <g>
      <path class="cls-5" d="M197.94,54.76c0,5.32-1.2,7.22-4.07,7.22s-4.05-2.01-4.05-7.22c0-5.59,1.7-6.95,4.12-6.95,2.55,0,4.01,1.54,4.01,6.95ZM192.35,54.67c0,3.45.16,5.24,1.54,5.24s1.52-1.71,1.52-5.19-.2-4.8-1.52-4.8c-1.24,0-1.55,1.36-1.55,4.76Z"/>
      <path class="cls-5" d="M210.67,47.98v1.96c-1.79,3.09-3.22,7.5-3.77,11.85h-2.66c.63-4.56,2.39-9.07,3.9-11.65h-4.87v-2.15h7.39Z"/>
      <path class="cls-5" d="M218.57,58.7c.09.52.27,1.3,1.31,1.3,1.67,0,1.61-3.14,1.64-4.46-.46.77-1.24,1.03-2.15,1.03-1.99,0-3.36-1.37-3.36-4.12s1.34-4.63,3.99-4.63c2.78,0,4.02,1.71,4.02,5.96,0,6.08-1.07,8.22-4.27,8.22-3.43,0-3.56-2.84-3.59-3.3h2.42ZM218.52,52.18c0,1.58.48,2.39,1.54,2.39.97,0,1.46-.68,1.46-2.16s-.22-2.58-1.5-2.58c-1.04,0-1.49.86-1.49,2.35Z"/>
      <path class="cls-5" d="M239.2,61.79v-10.94c-.34.05-1.12.05-1.52.02v-1.9c.99-.13,1.92-.59,2.37-1.05h1.68v13.87h-2.52Z"/>
      <path class="cls-5" d="M247.74,61.79v-.14c.02-2.35,1.03-4,3.13-6.36,1.6-1.81,1.98-2.32,1.98-3.71,0-1.03-.22-1.76-1.25-1.76s-1.35.87-1.4,2.26h-2.43c.02-2.17.96-4.26,3.91-4.26,2.69,0,3.76,1.56,3.76,3.85,0,1.64-.41,2.53-2.2,4.41-1.29,1.37-2.28,2.6-2.58,3.57h5.15l-.33,2.15h-7.73Z"/>
      <path class="cls-5" d="M268.43,50.13h-4.31c-.07.89-.25,2.43-.32,3.05.38-.39,1.03-.66,2-.66,2.29,0,3.4,1.79,3.4,4.29,0,2.84-.92,5.17-4.22,5.17-2.63,0-3.82-1.59-3.89-3.85h2.49c.07.91.34,1.85,1.47,1.85,1.31,0,1.55-1.21,1.55-2.83s-.3-2.6-1.55-2.6c-.95,0-1.27.65-1.5,1.41l-2.3-.32c.26-1.68.66-5.8.79-7.65h6.65l-.28,2.15Z"/>
      <path class="cls-5" d="M287.48,61.79v-3.28h-4.91v-2.05l4.01-8.47h3.22v8.49h1.27l-.22,2.04h-1.05v3.28h-2.32ZM287.48,53.63c0-1.48.03-2.59.08-3.74-.46,1.48-1.82,4.63-2.66,6.57h2.58v-2.83Z"/>
      <path class="cls-5" d="M302.07,51.13c-.06-.42-.18-1.36-1.31-1.36-1.54,0-1.6,2.23-1.64,3.96.4-.61,1.11-1.14,2.28-1.14,1.96,0,3.3,1.43,3.3,4.36,0,2.77-1.05,5.02-4.05,5.02-3.25,0-4.02-2.68-4.02-6.58,0-4.68.92-7.59,4.25-7.59,2.84,0,3.49,2.01,3.55,3.32h-2.35ZM302.18,57.24c0-1.91-.43-2.6-1.54-2.6s-1.54.81-1.54,2.29c0,1.87.42,3.09,1.55,3.09s1.54-1.01,1.54-2.78Z"/>
      <path class="cls-5" d="M323.12,61.79v-3.28h-4.91v-2.05l4.01-8.47h3.22v8.49h1.27l-.22,2.04h-1.05v3.28h-2.32ZM323.12,53.63c0-1.48.03-2.59.08-3.74-.46,1.48-1.82,4.63-2.66,6.57h2.58v-2.83Z"/>
      <path class="cls-5" d="M337.71,51.13c-.06-.42-.18-1.36-1.31-1.36-1.54,0-1.6,2.23-1.64,3.96.4-.61,1.11-1.14,2.28-1.14,1.96,0,3.3,1.43,3.3,4.36,0,2.77-1.05,5.02-4.05,5.02-3.25,0-4.02-2.68-4.02-6.58,0-4.68.92-7.59,4.25-7.59,2.84,0,3.49,2.01,3.55,3.32h-2.35ZM337.82,57.24c0-1.91-.43-2.6-1.54-2.6s-1.54.81-1.54,2.29c0,1.87.42,3.09,1.55,3.09s1.54-1.01,1.54-2.78Z"/>
    </g>
    <g>
      <path class="cls-4" d="M316.32,119.24c1.21-.47,2.27-.63,3.19-.47s1.61.83,2.08,2.01l-.21.13c-.44.06-1.29-.22-2.57-.83-3.03.22-4.58,1.99-4.63,5.29l.04.48.15.61c.21.82,1.71,1.14,4.51.94,2.8-.2,4.36.13,4.68.97.32.84-2.05,3.65-7.11,8.42l-.44.19-.15.04c-.24-.04-.46-.17-.67-.4-.07-.29.26-.7,1-1.23.74-.53,2.6-2.54,5.59-6.04.5-.41.47-.65-.07-.72-.54-.06-2.14-.02-4.8.14-2.41-.09-3.77-.75-4.08-2-.38-1.68-.2-3.24.55-4.68.75-1.44,1.73-2.39,2.94-2.87Z"/>
      <path class="cls-4" d="M331.19,120.12c1.48-.37,2.34-.09,2.57.83-.2.52-.02,1.86.51,4.03.4,3.01.93,4.73,1.6,5.19.67.45,1.39.58,2.19.38.79-.2,1.88-.85,3.27-1.96-.35,1.21-1.27,2.16-2.77,2.85-1.5.7-2.78.43-3.83-.8-1.05-1.23-1.71-3.1-1.99-5.61l-.08.02c-.7,1.12-1.42,2.53-2.18,4.21-.76,1.69-1.67,3.36-2.75,5.01-.21.22-.64.33-1.3.33s-1.2-1-1.64-3c-.44-2.01.1-4.32,1.61-6.93s3.05-4.11,4.63-4.51l.15-.04ZM326.05,132.18c.24.77.56,1.06.97.88l.15-.04c1.25-1.93,2.86-5.13,4.84-9.6-.11-.43.26-1.14,1.09-2.15-.06-.23-.73-.23-2.03.02-1.08.27-1.85.9-2.3,1.88-1.49,2.45-2.37,4.38-2.66,5.77-.28,1.39-.3,2.48-.06,3.25ZM326.04,118.08c.08-.68.54-.79,1.35-.35s1.44.64,1.87.58c.37.21.55.36.57.46-.07.23-.2.36-.4.39-.73.1-1.54,0-2.43-.29-.24-.06-.51-.17-.83-.35l-.13-.45Z"/>
      <path class="cls-4" d="M347.8,115.81c.82-.2,1.33.1,1.53.92.07.27-.03.54-.29.8l-.08.02c-.39-.28-.71-.39-.98-.33l-.46.11c-1.33.33-2.48,1.88-3.46,4.65-.98,2.77-1.55,4.91-1.74,6.42.24.97,0,1.74-.73,2.3-.37.09-1.03-1.59-1.99-5.04l-1.34-3.41c-.05-.37.08-.59.4-.67l.23-.06c.61-.15,1.14.64,1.57,2.38.52,1.39.85,2.07,1,2.03.5-.96,1.09-2.47,1.76-4.55s1.49-3.52,2.46-4.32c.97-.8,1.67-1.22,2.11-1.26Z"/>
      <path class="cls-4" d="M350.65,109.43c.24-.06.58.13,1.04.56l.06.23c-.65,1.28-.93,2.57-.84,3.86.09,1.29.82,4.52,2.18,9.69.7,3.3,1.49,5.22,2.39,5.77l-.47.38c-1.08-.44-2.17-2.7-3.28-6.78-1.1-4.07-1.77-7.19-1.99-9.35-.22-2.16.08-3.61.92-4.36Z"/>
    </g>
  </g>
</svg>