<?xml version="1.0" encoding="UTF-8"?>
<svg id="Calque_2" data-name="Calque 2" xmlns="http://www.w3.org/2000/svg" viewBox="0 0 893.45 353">
  <defs>
    <style>
      .cls-1 {
        fill: #fff;
      }

      .cls-2 {
        fill: none;
        stroke:#0E3388;
        stroke-miterlimit: 10;
        stroke-width: 8px;
      }
    </style>
  </defs>
  <g id="Calque_1-2" data-name="Calque 1">
    <g>
      <path class="cls-1" d="M130.34,156.3c-4.96,0-9.16-.87-12.6-2.6-3.44-1.73-6.07-4.21-7.88-7.44-1.81-3.23-2.83-7.11-3.04-11.64-.05-2.19-.08-4.53-.08-7.04s.03-4.91.08-7.2c.21-4.48,1.24-8.35,3.08-11.6,1.84-3.25,4.48-5.75,7.92-7.48,3.44-1.73,7.61-2.6,12.52-2.6,3.63,0,6.88.48,9.76,1.44s5.33,2.28,7.36,3.96c2.03,1.68,3.6,3.64,4.72,5.88,1.12,2.24,1.71,4.67,1.76,7.28.05.48-.09.88-.44,1.2-.35.32-.76.48-1.24.48h-7.6c-.59,0-1.07-.15-1.44-.44-.37-.29-.64-.79-.8-1.48-.85-3.52-2.32-5.92-4.4-7.2-2.08-1.28-4.67-1.92-7.76-1.92-3.57,0-6.43,1-8.56,3-2.13,2-3.28,5.29-3.44,9.88-.16,4.37-.16,8.85,0,13.44.16,4.59,1.31,7.88,3.44,9.88,2.13,2,4.99,3,8.56,3,3.09,0,5.69-.65,7.8-1.96,2.11-1.31,3.56-3.69,4.36-7.16.16-.75.43-1.25.8-1.52.37-.27.85-.4,1.44-.4h7.6c.48,0,.89.16,1.24.48.35.32.49.72.44,1.2-.05,2.61-.64,5.04-1.76,7.28-1.12,2.24-2.69,4.2-4.72,5.88-2.03,1.68-4.48,3-7.36,3.96-2.88.96-6.13,1.44-9.76,1.44Z"/>
      <path class="cls-1" d="M165.38,155.5c-.53,0-.99-.17-1.36-.52-.37-.35-.56-.81-.56-1.4v-52.08c0-.59.19-1.07.56-1.44s.83-.56,1.36-.56h7.28c.59,0,1.05.19,1.4.56.35.37.52.85.52,1.44v20.64h23.6v-20.64c0-.59.19-1.07.56-1.44s.83-.56,1.36-.56h7.2c.59,0,1.07.19,1.44.56.37.37.56.85.56,1.44v52.08c0,.53-.19.99-.56,1.36-.37.37-.85.56-1.44.56h-7.2c-.53,0-.99-.19-1.36-.56-.37-.37-.56-.83-.56-1.36v-21.44h-23.6v21.44c0,.53-.17.99-.52,1.36-.35.37-.81.56-1.4.56h-7.28Z"/>
      <path class="cls-1" d="M218.34,155.5c-.43,0-.81-.16-1.16-.48-.35-.32-.52-.72-.52-1.2,0-.21.05-.45.16-.72l19.28-51.6c.16-.53.47-1,.92-1.4.45-.4,1.08-.6,1.88-.6h8.72c.8,0,1.41.2,1.84.6.43.4.75.87.96,1.4l19.28,51.6c.05.27.08.51.08.72,0,.48-.16.88-.48,1.2-.32.32-.69.48-1.12.48h-6.96c-.75,0-1.29-.17-1.64-.52-.35-.35-.57-.68-.68-1l-3.76-9.76h-23.76l-3.76,9.76c-.11.32-.33.65-.68,1-.35.35-.89.52-1.64.52h-6.96ZM234.18,135.02h18.16l-9.12-24.72-9.04,24.72Z"/>
      <path class="cls-1" d="M298.34,156.3c-4.64,0-8.67-.79-12.08-2.36-3.41-1.57-6.05-4-7.92-7.28-1.87-3.28-2.8-7.48-2.8-12.6v-32.56c0-.59.19-1.07.56-1.44.37-.37.83-.56,1.36-.56h7.28c.59,0,1.05.19,1.4.56.35.37.52.85.52,1.44v32.56c0,4.37,1.04,7.61,3.12,9.72,2.08,2.11,4.93,3.16,8.56,3.16s6.47-1.05,8.52-3.16c2.05-2.11,3.08-5.35,3.08-9.72v-32.56c0-.59.19-1.07.56-1.44.37-.37.85-.56,1.44-.56h7.2c.59,0,1.05.19,1.4.56.35.37.52.85.52,1.44v32.56c0,5.12-.92,9.32-2.76,12.6-1.84,3.28-4.45,5.71-7.84,7.28-3.39,1.57-7.43,2.36-12.12,2.36Z"/>
      <path class="cls-1" d="M334.98,155.5c-.53,0-.99-.19-1.36-.56-.37-.37-.56-.83-.56-1.36v-52.08c0-.59.19-1.07.56-1.44.37-.37.83-.56,1.36-.56h34.72c.59,0,1.07.19,1.44.56.37.37.56.85.56,1.44v5.6c0,.59-.19,1.05-.56,1.4-.37.35-.85.52-1.44.52h-25.68v15.2h24.08c.59,0,1.07.19,1.44.56.37.37.56.85.56,1.44v5.6c0,.53-.19.99-.56,1.36-.37.37-.85.56-1.44.56h-24.08v19.84c0,.53-.19.99-.56,1.36-.37.37-.85.56-1.44.56h-7.04Z"/>
      <path class="cls-1" d="M383.06,155.5c-.53,0-.99-.19-1.36-.56-.37-.37-.56-.83-.56-1.36v-52.08c0-.59.19-1.07.56-1.44.37-.37.83-.56,1.36-.56h34.72c.59,0,1.07.19,1.44.56.37.37.56.85.56,1.44v5.6c0,.59-.19,1.05-.56,1.4-.37.35-.85.52-1.44.52h-25.68v15.2h24.08c.59,0,1.07.19,1.44.56.37.37.56.85.56,1.44v5.6c0,.53-.19.99-.56,1.36-.37.37-.85.56-1.44.56h-24.08v19.84c0,.53-.19.99-.56,1.36-.37.37-.85.56-1.44.56h-7.04Z"/>
      <path class="cls-1" d="M422.5,155.5c-.43,0-.81-.16-1.16-.48s-.52-.72-.52-1.2c0-.21.05-.45.16-.72l19.28-51.6c.16-.53.47-1,.92-1.4.45-.4,1.08-.6,1.88-.6h8.72c.8,0,1.41.2,1.84.6.43.4.75.87.96,1.4l19.28,51.6c.05.27.08.51.08.72,0,.48-.16.88-.48,1.2-.32.32-.69.48-1.12.48h-6.96c-.75,0-1.29-.17-1.64-.52-.35-.35-.57-.68-.68-1l-3.76-9.76h-23.76l-3.76,9.76c-.11.32-.33.65-.68,1-.35.35-.89.52-1.64.52h-6.96ZM438.34,135.02h18.16l-9.12-24.72-9.04,24.72Z"/>
      <path class="cls-1" d="M502.02,156.3c-4.91,0-9.08-.85-12.52-2.56-3.44-1.71-6.11-4.17-8-7.4-1.89-3.23-2.92-7.08-3.08-11.56-.05-2.29-.08-4.76-.08-7.4s.03-5.13.08-7.48c.16-4.43,1.19-8.21,3.08-11.36,1.89-3.15,4.59-5.57,8.08-7.28,3.49-1.71,7.64-2.56,12.44-2.56,3.89,0,7.31.52,10.24,1.56,2.93,1.04,5.37,2.37,7.32,4,1.95,1.63,3.41,3.37,4.4,5.24.99,1.87,1.51,3.6,1.56,5.2.05.48-.08.88-.4,1.2-.32.32-.75.48-1.28.48h-8.24c-.53,0-.93-.11-1.2-.32-.27-.21-.51-.53-.72-.96-.43-1.12-1.09-2.23-2-3.32-.91-1.09-2.13-2.01-3.68-2.76-1.55-.75-3.55-1.12-6-1.12-3.63,0-6.52.96-8.68,2.88-2.16,1.92-3.32,5.09-3.48,9.52-.16,4.64-.16,9.33,0,14.08.16,4.53,1.35,7.79,3.56,9.76,2.21,1.97,5.13,2.96,8.76,2.96,2.4,0,4.55-.43,6.44-1.28,1.89-.85,3.39-2.19,4.48-4,1.09-1.81,1.64-4.13,1.64-6.96v-2.48h-9.76c-.53,0-.99-.19-1.36-.56-.37-.37-.56-.85-.56-1.44v-4.24c0-.59.19-1.07.56-1.44.37-.37.83-.56,1.36-.56h19.12c.59,0,1.05.19,1.4.56.35.37.52.85.52,1.44v8.4c0,4.48-.97,8.35-2.92,11.6-1.95,3.25-4.72,5.76-8.32,7.52-3.6,1.76-7.85,2.64-12.76,2.64Z"/>
      <path class="cls-1" d="M538.18,155.5c-.53,0-.99-.19-1.36-.56-.37-.37-.56-.83-.56-1.36v-52.08c0-.59.19-1.07.56-1.44.37-.37.83-.56,1.36-.56h35.2c.59,0,1.07.19,1.44.56.37.37.56.85.56,1.44v5.28c0,.53-.19.99-.56,1.36-.37.37-.85.56-1.44.56h-26.32v14.16h24.56c.59,0,1.07.17,1.44.52.37.35.56.81.56,1.4v4.96c0,.59-.19,1.05-.56,1.4-.37.35-.85.52-1.44.52h-24.56v14.64h26.96c.59,0,1.07.19,1.44.56.37.37.56.85.56,1.44v5.28c0,.53-.19.99-.56,1.36-.37.37-.85.56-1.44.56h-35.84Z"/>
      <path class="cls-1" d="M606.26,155.5c-.53,0-.99-.19-1.36-.56-.37-.37-.56-.83-.56-1.36v-52.08c0-.59.19-1.07.56-1.44.37-.37.83-.56,1.36-.56h34.72c.59,0,1.07.19,1.44.56.37.37.56.85.56,1.44v5.6c0,.59-.19,1.05-.56,1.4-.37.35-.85.52-1.44.52h-25.68v15.2h24.08c.59,0,1.07.19,1.44.56.37.37.56.85.56,1.44v5.6c0,.53-.19.99-.56,1.36-.37.37-.85.56-1.44.56h-24.08v19.84c0,.53-.19.99-.56,1.36-.37.37-.85.56-1.44.56h-7.04Z"/>
      <path class="cls-1" d="M654.34,155.5c-.53,0-.99-.19-1.36-.56-.37-.37-.56-.83-.56-1.36v-52.16c0-.53.19-.99.56-1.36.37-.37.83-.56,1.36-.56h7.52c.59,0,1.05.19,1.4.56.35.37.52.83.52,1.36v52.16c0,.53-.17.99-.52,1.36-.35.37-.81.56-1.4.56h-7.52Z"/>
      <path class="cls-1" d="M672.9,155.5c-.43,0-.81-.16-1.16-.48s-.52-.72-.52-1.2c0-.21.05-.45.16-.72l19.28-51.6c.16-.53.47-1,.92-1.4.45-.4,1.08-.6,1.88-.6h8.72c.8,0,1.41.2,1.84.6.43.4.75.87.96,1.4l19.28,51.6c.05.27.08.51.08.72,0,.48-.16.88-.48,1.2-.32.32-.69.48-1.12.48h-6.96c-.75,0-1.29-.17-1.64-.52-.35-.35-.57-.68-.68-1l-3.76-9.76h-23.76l-3.76,9.76c-.11.32-.33.65-.68,1-.35.35-.89.52-1.64.52h-6.96ZM688.74,135.02h18.16l-9.12-24.72-9.04,24.72Z"/>
      <path class="cls-1" d="M733.7,155.5c-.53,0-.99-.19-1.36-.56-.37-.37-.56-.83-.56-1.36v-52.08c0-.59.19-1.07.56-1.44.37-.37.83-.56,1.36-.56h23.2c4.32,0,7.84.65,10.56,1.96,2.72,1.31,4.73,3.11,6.04,5.4,1.31,2.29,1.96,4.96,1.96,8,0,2.03-.36,3.8-1.08,5.32s-1.6,2.76-2.64,3.72-2.07,1.71-3.08,2.24c2.08.96,3.92,2.56,5.52,4.8,1.6,2.24,2.4,4.91,2.4,8s-.72,6.05-2.16,8.56c-1.44,2.51-3.57,4.47-6.4,5.88-2.83,1.41-6.32,2.12-10.48,2.12h-23.84ZM742.9,122.46h12.56c2.83,0,4.95-.68,6.36-2.04,1.41-1.36,2.12-3.13,2.12-5.32s-.71-4-2.12-5.28c-1.41-1.28-3.53-1.92-6.36-1.92h-12.56v14.56ZM742.9,147.02h13.36c2.88,0,5.07-.79,6.56-2.36,1.49-1.57,2.24-3.48,2.24-5.72s-.76-4.29-2.28-5.84c-1.52-1.55-3.69-2.32-6.52-2.32h-13.36v16.24Z"/>
      <path class="cls-1" d="M788.58,155.5c-.53,0-.99-.19-1.36-.56-.37-.37-.56-.83-.56-1.36v-52.16c0-.53.19-.99.56-1.36.37-.37.83-.56,1.36-.56h7.44c.53,0,.99.19,1.36.56.37.37.56.83.56,1.36v44.56h25.36c.59,0,1.07.19,1.44.56.37.37.56.85.56,1.44v5.6c0,.53-.19.99-.56,1.36-.37.37-.85.56-1.44.56h-34.72Z"/>
      <path class="cls-1" d="M834.97,155.5c-.53,0-.99-.19-1.36-.56-.37-.37-.56-.83-.56-1.36v-52.08c0-.59.19-1.07.56-1.44.37-.37.83-.56,1.36-.56h35.2c.59,0,1.07.19,1.44.56.37.37.56.85.56,1.44v5.28c0,.53-.19.99-.56,1.36-.37.37-.85.56-1.44.56h-26.32v14.16h24.56c.59,0,1.07.17,1.44.52.37.35.56.81.56,1.4v4.96c0,.59-.19,1.05-.56,1.4-.37.35-.85.52-1.44.52h-24.56v14.64h26.96c.59,0,1.07.19,1.44.56.37.37.56.85.56,1.44v5.28c0,.53-.19.99-.56,1.36-.37.37-.85.56-1.44.56h-35.84Z"/>
      <path class="cls-1" d="M881.37,161.5c-.48,0-.85-.16-1.12-.48-.27-.32-.37-.72-.32-1.2l2.16-13.6c.11-.69.36-1.29.76-1.8.4-.51,1-.76,1.8-.76h7.36c.43,0,.77.15,1.04.44.27.29.4.65.4,1.08,0,.37-.08.72-.24,1.04l-5.12,13.28c-.21.53-.52,1-.92,1.4s-.97.6-1.72.6h-4.08Z"/>
      <path class="cls-1" d="M130.34,252.3c-4.96,0-9.16-.87-12.6-2.6-3.44-1.73-6.07-4.21-7.88-7.44-1.81-3.23-2.83-7.11-3.04-11.64-.05-2.19-.08-4.53-.08-7.04s.03-4.91.08-7.2c.21-4.48,1.24-8.35,3.08-11.6,1.84-3.25,4.48-5.75,7.92-7.48,3.44-1.73,7.61-2.6,12.52-2.6,3.63,0,6.88.48,9.76,1.44,2.88.96,5.33,2.28,7.36,3.96,2.03,1.68,3.6,3.64,4.72,5.88,1.12,2.24,1.71,4.67,1.76,7.28.05.48-.09.88-.44,1.2-.35.32-.76.48-1.24.48h-7.6c-.59,0-1.07-.15-1.44-.44-.37-.29-.64-.79-.8-1.48-.85-3.52-2.32-5.92-4.4-7.2-2.08-1.28-4.67-1.92-7.76-1.92-3.57,0-6.43,1-8.56,3-2.13,2-3.28,5.29-3.44,9.88-.16,4.38-.16,8.85,0,13.44.16,4.59,1.31,7.88,3.44,9.88,2.13,2,4.99,3,8.56,3,3.09,0,5.69-.65,7.8-1.96,2.11-1.31,3.56-3.69,4.36-7.16.16-.75.43-1.25.8-1.52.37-.27.85-.4,1.44-.4h7.6c.48,0,.89.16,1.24.48.35.32.49.72.44,1.2-.05,2.61-.64,5.04-1.76,7.28-1.12,2.24-2.69,4.2-4.72,5.88-2.03,1.68-4.48,3-7.36,3.96-2.88.96-6.13,1.44-9.76,1.44Z"/>
      <path class="cls-1" d="M184.98,252.3c-4.75,0-8.83-.79-12.24-2.36-3.41-1.57-6.08-4-8-7.28-1.92-3.28-2.96-7.37-3.12-12.28-.05-2.29-.08-4.56-.08-6.8s.03-4.53.08-6.88c.16-4.85,1.23-8.91,3.2-12.16,1.97-3.25,4.68-5.71,8.12-7.36,3.44-1.65,7.45-2.48,12.04-2.48s8.61.83,12.08,2.48c3.47,1.65,6.19,4.11,8.16,7.36,1.97,3.25,3.04,7.31,3.2,12.16.11,2.35.16,4.64.16,6.88s-.05,4.51-.16,6.8c-.16,4.91-1.2,9-3.12,12.28-1.92,3.28-4.6,5.71-8.04,7.28-3.44,1.57-7.53,2.36-12.28,2.36ZM184.98,243.1c3.47,0,6.29-1.03,8.48-3.08,2.19-2.05,3.36-5.4,3.52-10.04.11-2.35.16-4.52.16-6.52s-.05-4.15-.16-6.44c-.11-3.09-.68-5.61-1.72-7.56-1.04-1.95-2.44-3.36-4.2-4.24-1.76-.88-3.79-1.32-6.08-1.32s-4.24.44-6,1.32c-1.76.88-3.16,2.29-4.2,4.24-1.04,1.95-1.61,4.47-1.72,7.56-.05,2.29-.08,4.44-.08,6.44s.03,4.17.08,6.52c.16,4.64,1.33,7.99,3.52,10.04,2.19,2.05,4.99,3.08,8.4,3.08Z"/>
      <path class="cls-1" d="M220.98,251.5c-.53,0-.99-.19-1.36-.56-.37-.37-.56-.83-.56-1.36v-52.08c0-.59.19-1.07.56-1.44.37-.37.83-.56,1.36-.56h6.16c.75,0,1.29.17,1.64.52.35.35.57.6.68.76l23.04,35.84v-35.12c0-.59.17-1.07.52-1.44.35-.37.81-.56,1.4-.56h6.72c.59,0,1.07.19,1.44.56.37.37.56.85.56,1.44v52c0,.59-.19,1.07-.56,1.44-.37.38-.83.56-1.36.56h-6.24c-.75,0-1.28-.19-1.6-.56-.32-.37-.56-.61-.72-.72l-22.96-35.04v34.4c0,.53-.19.99-.56,1.36-.37.38-.85.56-1.44.56h-6.72Z"/>
      <path class="cls-1" d="M277.54,251.5c-.53,0-.99-.19-1.36-.56-.37-.37-.56-.83-.56-1.36v-52.08c0-.59.19-1.07.56-1.44.37-.37.83-.56,1.36-.56h34.72c.59,0,1.07.19,1.44.56.37.37.56.85.56,1.44v5.6c0,.59-.19,1.05-.56,1.4-.37.35-.85.52-1.44.52h-25.68v15.2h24.08c.59,0,1.07.19,1.44.56.37.38.56.85.56,1.44v5.6c0,.53-.19.99-.56,1.36-.37.37-.85.56-1.44.56h-24.08v19.84c0,.53-.19.99-.56,1.36-.37.38-.85.56-1.44.56h-7.04Z"/>
      <path class="cls-1" d="M344.82,252.3c-4.75,0-8.83-.79-12.24-2.36-3.41-1.57-6.08-4-8-7.28-1.92-3.28-2.96-7.37-3.12-12.28-.05-2.29-.08-4.56-.08-6.8s.03-4.53.08-6.88c.16-4.85,1.23-8.91,3.2-12.16,1.97-3.25,4.68-5.71,8.12-7.36,3.44-1.65,7.45-2.48,12.04-2.48s8.61.83,12.08,2.48c3.47,1.65,6.19,4.11,8.16,7.36,1.97,3.25,3.04,7.31,3.2,12.16.11,2.35.16,4.64.16,6.88s-.05,4.51-.16,6.8c-.16,4.91-1.2,9-3.12,12.28-1.92,3.28-4.6,5.71-8.04,7.28-3.44,1.57-7.53,2.36-12.28,2.36ZM344.82,243.1c3.47,0,6.29-1.03,8.48-3.08,2.19-2.05,3.36-5.4,3.52-10.04.11-2.35.16-4.52.16-6.52s-.05-4.15-.16-6.44c-.11-3.09-.68-5.61-1.72-7.56-1.04-1.95-2.44-3.36-4.2-4.24-1.76-.88-3.79-1.32-6.08-1.32s-4.24.44-6,1.32c-1.76.88-3.16,2.29-4.2,4.24-1.04,1.95-1.61,4.47-1.72,7.56-.05,2.29-.08,4.44-.08,6.44s.03,4.17.08,6.52c.16,4.64,1.33,7.99,3.52,10.04,2.19,2.05,4.99,3.08,8.4,3.08Z"/>
      <path class="cls-1" d="M380.82,251.5c-.53,0-.99-.19-1.36-.56-.37-.37-.56-.83-.56-1.36v-52.08c0-.59.19-1.07.56-1.44.37-.37.83-.56,1.36-.56h20.72c6.45,0,11.55,1.49,15.28,4.48,3.73,2.99,5.6,7.33,5.6,13.04,0,3.95-.97,7.23-2.92,9.84-1.95,2.61-4.55,4.51-7.8,5.68l11.68,20.4c.16.32.24.61.24.88,0,.48-.17.88-.52,1.2-.35.32-.73.48-1.16.48h-7.28c-.91,0-1.6-.24-2.08-.72s-.85-.96-1.12-1.44l-10.32-18.96h-11.12v19.2c0,.53-.17.99-.52,1.36-.35.38-.81.56-1.4.56h-7.28ZM390.02,221.34h11.28c3.25,0,5.68-.73,7.28-2.2s2.4-3.53,2.4-6.2-.79-4.76-2.36-6.28c-1.57-1.52-4.01-2.28-7.32-2.28h-11.28v16.96Z"/>
      <path class="cls-1" d="M446.34,251.5c-.53,0-.99-.19-1.36-.56-.37-.37-.56-.83-.56-1.36v-44.24h-14.8c-.53,0-.99-.19-1.36-.56-.37-.37-.56-.83-.56-1.36v-5.92c0-.59.19-1.07.56-1.44.37-.37.83-.56,1.36-.56h40.8c.59,0,1.07.19,1.44.56.37.37.56.85.56,1.44v5.92c0,.53-.19.99-.56,1.36-.37.38-.85.56-1.44.56h-14.72v44.24c0,.53-.19.99-.56,1.36-.37.38-.85.56-1.44.56h-7.36Z"/>
      <path class="cls-1" d="M491.38,251.5c-.43,0-.81-.16-1.16-.48-.35-.32-.52-.72-.52-1.2,0-.21.05-.45.16-.72l19.28-51.6c.16-.53.47-1,.92-1.4.45-.4,1.08-.6,1.88-.6h8.72c.8,0,1.41.2,1.84.6.43.4.75.87.96,1.4l19.28,51.6c.05.27.08.51.08.72,0,.48-.16.88-.48,1.2-.32.32-.69.48-1.12.48h-6.96c-.75,0-1.29-.17-1.64-.52-.35-.35-.57-.68-.68-1l-3.76-9.76h-23.76l-3.76,9.76c-.11.32-.33.65-.68,1-.35.35-.89.52-1.64.52h-6.96ZM507.22,231.02h18.16l-9.12-24.72-9.04,24.72Z"/>
      <path class="cls-1" d="M568.9,252.3c-4.96,0-9.11-.73-12.44-2.2-3.33-1.47-5.87-3.39-7.6-5.76-1.73-2.37-2.65-4.87-2.76-7.48,0-.48.16-.88.48-1.2.32-.32.72-.48,1.2-.48h7.12c.69,0,1.21.15,1.56.44.35.29.65.65.92,1.08.32,1.01.93,2.01,1.84,3,.91.99,2.15,1.8,3.72,2.44,1.57.64,3.56.96,5.96.96,3.84,0,6.71-.64,8.6-1.92,1.89-1.28,2.84-3.01,2.84-5.2,0-1.55-.51-2.79-1.52-3.72-1.01-.93-2.57-1.79-4.68-2.56-2.11-.77-4.89-1.59-8.36-2.44-4-.96-7.35-2.12-10.04-3.48-2.69-1.36-4.72-3.08-6.08-5.16-1.36-2.08-2.04-4.72-2.04-7.92s.84-5.84,2.52-8.24,4.08-4.29,7.2-5.68c3.12-1.39,6.84-2.08,11.16-2.08,3.47,0,6.53.47,9.2,1.4,2.67.93,4.88,2.16,6.64,3.68,1.76,1.52,3.11,3.15,4.04,4.88.93,1.73,1.43,3.43,1.48,5.08,0,.43-.15.81-.44,1.16-.29.35-.71.52-1.24.52h-7.44c-.43,0-.85-.11-1.28-.32-.43-.21-.77-.61-1.04-1.2-.32-1.65-1.36-3.07-3.12-4.24-1.76-1.17-4.03-1.76-6.8-1.76s-5.2.53-6.96,1.6c-1.76,1.07-2.64,2.72-2.64,4.96,0,1.49.44,2.73,1.32,3.72.88.99,2.29,1.85,4.24,2.6,1.95.75,4.52,1.55,7.72,2.4,4.53,1.01,8.24,2.19,11.12,3.52s4.99,3.03,6.32,5.08c1.33,2.05,2,4.65,2,7.8,0,3.52-.95,6.52-2.84,9-1.89,2.48-4.55,4.39-7.96,5.72s-7.39,2-11.92,2Z"/>
      <path class="cls-1" d="M620.26,252.3c-4.96,0-9.11-.73-12.44-2.2-3.33-1.47-5.87-3.39-7.6-5.76-1.73-2.37-2.65-4.87-2.76-7.48,0-.48.16-.88.48-1.2.32-.32.72-.48,1.2-.48h7.12c.69,0,1.21.15,1.56.44.35.29.65.65.92,1.08.32,1.01.93,2.01,1.84,3,.91.99,2.15,1.8,3.72,2.44,1.57.64,3.56.96,5.96.96,3.84,0,6.71-.64,8.6-1.92,1.89-1.28,2.84-3.01,2.84-5.2,0-1.55-.51-2.79-1.52-3.72-1.01-.93-2.57-1.79-4.68-2.56-2.11-.77-4.89-1.59-8.36-2.44-4-.96-7.35-2.12-10.04-3.48-2.69-1.36-4.72-3.08-6.08-5.16-1.36-2.08-2.04-4.72-2.04-7.92s.84-5.84,2.52-8.24,4.08-4.29,7.2-5.68c3.12-1.39,6.84-2.08,11.16-2.08,3.47,0,6.53.47,9.2,1.4,2.67.93,4.88,2.16,6.64,3.68,1.76,1.52,3.11,3.15,4.04,4.88.93,1.73,1.43,3.43,1.48,5.08,0,.43-.15.81-.44,1.16-.29.35-.71.52-1.24.52h-7.44c-.43,0-.85-.11-1.28-.32-.43-.21-.77-.61-1.04-1.2-.32-1.65-1.36-3.07-3.12-4.24-1.76-1.17-4.03-1.76-6.8-1.76s-5.2.53-6.96,1.6c-1.76,1.07-2.64,2.72-2.64,4.96,0,1.49.44,2.73,1.32,3.72.88.99,2.29,1.85,4.24,2.6,1.95.75,4.52,1.55,7.72,2.4,4.53,1.01,8.24,2.19,11.12,3.52s4.99,3.03,6.32,5.08c1.33,2.05,2,4.65,2,7.8,0,3.52-.95,6.52-2.84,9-1.89,2.48-4.55,4.39-7.96,5.72s-7.39,2-11.92,2Z"/>
      <path class="cls-1" d="M674.5,252.3c-4.64,0-8.67-.79-12.08-2.36-3.41-1.57-6.05-4-7.92-7.28-1.87-3.28-2.8-7.48-2.8-12.6v-32.56c0-.59.19-1.07.56-1.44.37-.37.83-.56,1.36-.56h7.28c.59,0,1.05.19,1.4.56.35.37.52.85.52,1.44v32.56c0,4.37,1.04,7.61,3.12,9.72,2.08,2.11,4.93,3.16,8.56,3.16s6.47-1.05,8.52-3.16c2.05-2.11,3.08-5.35,3.08-9.72v-32.56c0-.59.19-1.07.56-1.44s.85-.56,1.44-.56h7.2c.59,0,1.05.19,1.4.56.35.37.52.85.52,1.44v32.56c0,5.12-.92,9.32-2.76,12.6-1.84,3.28-4.45,5.71-7.84,7.28-3.39,1.57-7.43,2.36-12.12,2.36Z"/>
      <path class="cls-1" d="M711.14,251.5c-.53,0-.99-.19-1.36-.56-.37-.37-.56-.83-.56-1.36v-52.08c0-.59.19-1.07.56-1.44.37-.37.83-.56,1.36-.56h20.72c6.45,0,11.55,1.49,15.28,4.48,3.73,2.99,5.6,7.33,5.6,13.04,0,3.95-.97,7.23-2.92,9.84-1.95,2.61-4.55,4.51-7.8,5.68l11.68,20.4c.16.32.24.61.24.88,0,.48-.17.88-.52,1.2-.35.32-.73.48-1.16.48h-7.28c-.91,0-1.6-.24-2.08-.72s-.85-.96-1.12-1.44l-10.32-18.96h-11.12v19.2c0,.53-.17.99-.52,1.36-.35.38-.81.56-1.4.56h-7.28ZM720.34,221.34h11.28c3.25,0,5.68-.73,7.28-2.2s2.4-3.53,2.4-6.2-.79-4.76-2.36-6.28c-1.57-1.52-4.01-2.28-7.32-2.28h-11.28v16.96Z"/>
      <path class="cls-1" d="M764.98,251.5c-.53,0-.99-.19-1.36-.56-.37-.37-.56-.83-.56-1.36v-52.08c0-.59.19-1.07.56-1.44.37-.37.83-.56,1.36-.56h35.2c.59,0,1.07.19,1.44.56.37.37.56.85.56,1.44v5.28c0,.54-.19.99-.56,1.36-.37.37-.85.56-1.44.56h-26.32v14.16h24.56c.59,0,1.07.17,1.44.52.37.35.56.81.56,1.4v4.96c0,.59-.19,1.05-.56,1.4-.37.35-.85.52-1.44.52h-24.56v14.64h26.96c.59,0,1.07.19,1.44.56.37.38.56.85.56,1.44v5.28c0,.53-.19.99-.56,1.36-.37.38-.85.56-1.44.56h-35.84ZM778.18,191.5c-.85,0-1.28-.43-1.28-1.28,0-.43.13-.77.4-1.04l6.48-7.92c.53-.59.99-.97,1.36-1.16.37-.19.91-.28,1.6-.28h8.56c1.01,0,1.52.51,1.52,1.52,0,.37-.13.69-.4.96l-9.92,8.16c-.43.37-.84.64-1.24.8-.4.16-.92.24-1.56.24h-5.52Z"/>
      <path class="cls-2" d="M349,58V4H4v345h345v-55"/>
    </g>
  </g>
</svg>





